<svg id="svg" version="1.1" xmlns="http://www.w3.org/2000/svg" width="400" height="400" viewBox="0, 0, 400,400">
	<g id="svgg">
		<path id="path0" d="M287.480 63.974 C 285.275 64.580,284.357 65.103,282.633 66.733 C 281.463 67.840,279.807 69.037,278.953 69.394 C 277.142 70.150,275.270 71.812,274.765 73.112 C 274.557 73.647,273.662 74.345,272.598 74.801 C 271.564 75.244,269.716 76.667,268.293 78.117 C 266.699 79.741,264.543 81.356,262.316 82.595 C 259.799 83.995,258.729 84.829,258.460 85.600 C 258.107 86.612,254.769 89.200,253.816 89.200 C 253.571 89.200,252.477 90.108,251.385 91.217 C 250.293 92.326,248.495 93.746,247.388 94.371 C 246.282 94.996,244.526 96.502,243.488 97.718 C 241.763 99.737,241.295 100.029,238.099 101.084 L 234.600 102.240 230.760 101.566 C 226.216 100.769,225.532 100.455,223.307 98.137 C 221.902 96.675,221.388 96.389,220.292 96.463 C 219.565 96.512,218.752 96.417,218.485 96.252 C 218.218 96.088,218.000 96.123,218.000 96.332 C 218.000 96.789,216.700 96.737,216.356 96.266 C 216.221 96.083,216.016 96.181,215.900 96.485 C 215.752 96.869,216.069 97.072,216.944 97.155 C 217.635 97.220,218.560 97.324,219.000 97.386 C 219.440 97.447,220.285 97.521,220.877 97.549 C 221.621 97.584,222.176 97.974,222.669 98.809 C 223.853 100.814,225.967 101.970,229.886 102.756 C 231.861 103.152,233.692 103.610,233.956 103.773 C 234.219 103.936,234.652 103.901,234.918 103.695 C 235.183 103.490,237.010 102.828,238.977 102.224 C 242.740 101.069,244.284 99.936,245.668 97.314 C 246.156 96.388,246.775 95.930,247.973 95.607 C 249.769 95.124,252.219 93.200,252.611 91.966 C 252.757 91.507,253.886 90.707,255.330 90.040 C 256.933 89.299,258.525 88.128,259.865 86.703 C 261.001 85.496,263.161 83.829,264.665 82.998 C 267.992 81.161,268.629 80.632,269.879 78.666 C 270.492 77.699,271.486 76.852,272.562 76.375 C 274.381 75.571,276.400 73.803,276.400 73.015 C 276.400 72.156,278.164 70.929,280.180 70.385 C 281.678 69.981,282.651 69.342,284.180 67.758 C 288.669 63.105,299.791 63.023,304.000 67.612 C 305.274 69.001,306.501 69.848,308.200 70.510 C 310.163 71.275,310.762 71.737,311.488 73.047 C 312.171 74.277,312.919 74.899,314.718 75.729 C 316.909 76.741,319.600 78.886,319.600 79.621 C 319.600 79.913,325.824 84.400,326.228 84.400 C 326.319 84.400,326.936 84.985,327.600 85.700 C 330.452 88.772,331.002 89.203,332.855 89.818 C 334.371 90.322,335.082 90.866,336.036 92.252 C 336.903 93.513,337.928 94.356,339.519 95.119 C 341.270 95.958,342.003 96.602,342.799 98.000 C 343.469 99.176,344.384 100.085,345.439 100.622 C 348.433 102.147,349.847 103.168,350.402 104.204 C 351.040 105.396,354.892 108.139,356.488 108.538 C 358.109 108.942,359.448 110.634,360.163 113.182 C 361.158 116.729,361.137 359.106,360.142 360.791 L 359.483 361.906 357.842 360.644 C 356.939 359.950,355.840 359.081,355.400 358.713 C 351.678 355.601,350.357 354.685,348.761 354.114 C 347.286 353.586,346.740 353.112,346.001 351.720 C 345.253 350.310,344.608 349.758,342.565 348.784 C 340.563 347.828,339.862 347.239,339.125 345.892 C 338.374 344.518,337.642 343.917,335.231 342.693 C 333.490 341.809,331.984 340.734,331.589 340.093 C 330.750 338.733,329.914 338.029,327.509 336.656 C 326.468 336.062,324.398 334.404,322.909 332.972 C 320.696 330.843,319.766 330.242,317.831 329.683 C 315.986 329.151,315.052 328.575,313.612 327.083 C 310.657 324.021,302.950 322.931,289.178 323.625 C 278.453 324.166,275.238 325.000,274.637 327.396 C 274.469 328.065,273.858 328.530,272.501 329.021 C 268.525 330.459,267.153 331.290,266.160 332.863 C 265.616 333.726,264.682 334.615,264.085 334.840 C 262.040 335.612,258.572 338.109,257.421 339.639 C 256.654 340.658,255.288 341.654,253.330 342.622 C 250.928 343.809,250.199 344.401,249.342 345.863 C 248.503 347.294,247.785 347.892,245.745 348.855 C 243.226 350.045,242.604 350.690,241.776 352.965 C 241.442 353.884,240.950 354.247,239.448 354.685 C 238.076 355.085,236.964 355.835,235.472 357.365 C 234.332 358.533,232.590 359.872,231.600 360.340 C 225.207 363.360,222.528 368.169,223.012 375.756 C 223.153 377.980,223.101 380.835,222.895 382.100 C 222.600 383.915,222.631 384.400,223.042 384.400 C 223.829 384.400,224.181 381.908,224.116 376.800 C 224.016 368.908,226.490 364.593,233.005 361.295 C 234.322 360.628,235.812 359.521,236.316 358.836 C 236.820 358.150,238.211 357.036,239.406 356.362 C 240.602 355.687,242.331 354.238,243.248 353.143 C 244.165 352.047,245.835 350.553,246.958 349.824 C 248.081 349.094,249.720 347.740,250.600 346.814 C 251.934 345.411,257.199 341.600,257.804 341.600 C 257.903 341.600,258.697 340.826,259.569 339.880 C 260.441 338.934,262.431 337.460,263.991 336.605 C 265.785 335.622,267.129 334.563,267.647 333.724 C 268.230 332.780,269.350 331.976,271.533 330.932 C 273.220 330.126,275.391 328.775,276.359 327.931 C 281.655 323.308,306.655 323.046,311.378 327.563 C 312.050 328.206,314.164 329.470,316.075 330.373 C 318.365 331.455,320.002 332.537,320.875 333.548 C 321.604 334.391,322.650 335.317,323.200 335.605 C 324.467 336.270,326.937 338.153,329.000 340.028 C 329.880 340.827,331.965 342.318,333.633 343.340 C 335.300 344.362,337.220 345.889,337.898 346.733 C 338.576 347.577,340.189 348.952,341.481 349.789 C 342.774 350.626,344.326 351.999,344.930 352.840 C 345.567 353.725,347.004 354.888,348.346 355.604 C 349.620 356.283,351.329 357.485,352.143 358.276 C 352.958 359.067,354.474 360.247,355.512 360.898 C 356.550 361.548,357.880 362.532,358.467 363.084 L 359.534 364.087 360.765 361.943 L 361.996 359.800 361.898 236.600 C 361.786 95.791,362.190 110.063,358.255 108.044 C 357.186 107.495,355.144 105.989,353.718 104.697 C 352.292 103.404,349.844 101.525,348.277 100.521 C 346.710 99.517,344.633 97.811,343.662 96.731 C 342.691 95.651,341.340 94.479,340.660 94.127 C 339.980 93.776,338.428 92.545,337.212 91.393 C 335.995 90.241,334.257 88.924,333.349 88.466 C 332.441 88.008,330.941 86.771,330.016 85.717 C 329.092 84.663,327.643 83.440,326.796 83.000 C 325.950 82.560,324.289 81.274,323.106 80.142 C 320.653 77.795,316.524 74.800,315.741 74.800 C 315.451 74.800,314.266 73.794,313.107 72.564 C 311.948 71.334,310.108 69.872,309.017 69.315 C 307.926 68.758,306.280 67.527,305.359 66.579 C 302.366 63.499,293.761 62.245,287.480 63.974 M288.092 87.683 C 286.933 88.139,285.223 89.166,284.292 89.965 C 282.615 91.403,280.772 92.676,277.925 94.361 C 277.114 94.841,275.813 96.121,275.034 97.206 C 274.114 98.487,272.922 99.530,271.633 100.183 C 270.542 100.736,269.143 101.866,268.525 102.694 C 267.113 104.584,266.520 105.098,264.929 105.815 C 263.879 106.287,259.110 109.931,258.400 110.803 C 258.290 110.938,257.036 111.750,255.613 112.606 C 254.190 113.463,252.300 114.926,251.413 115.856 C 250.526 116.787,248.720 118.113,247.400 118.802 C 246.077 119.493,244.103 121.021,243.000 122.209 C 241.118 124.236,240.842 124.387,238.310 124.787 C 234.653 125.365,233.809 125.738,231.537 127.780 C 229.998 129.164,228.746 129.816,225.690 130.826 C 220.829 132.432,219.337 133.177,217.079 135.131 C 215.201 136.757,213.651 137.300,208.659 138.078 C 206.684 138.386,184.196 138.598,135.926 138.762 L 66.052 139.000 64.864 140.138 C 64.164 140.810,63.210 142.532,62.538 144.338 L 61.400 147.400 61.200 200.800 L 61.000 254.200 59.864 256.772 C 57.842 261.354,57.864 260.854,57.721 305.200 C 57.574 350.490,57.441 347.623,59.867 351.383 C 61.931 354.581,62.789 355.571,64.138 356.310 C 65.863 357.253,132.552 357.375,136.600 356.442 C 138.465 356.012,145.514 355.831,168.200 355.631 C 201.102 355.341,201.961 355.270,204.800 352.601 C 205.570 351.877,207.736 350.559,209.614 349.672 C 211.703 348.685,213.877 347.270,215.214 346.025 C 216.416 344.907,218.697 343.340,220.281 342.544 C 222.310 341.525,223.487 340.629,224.258 339.516 C 224.881 338.617,226.158 337.528,227.222 336.989 C 228.249 336.468,229.839 335.147,230.755 334.054 C 231.671 332.960,233.381 331.523,234.555 330.860 C 235.730 330.197,237.302 328.940,238.050 328.067 C 238.797 327.194,240.933 325.534,242.795 324.379 C 244.658 323.224,246.859 321.522,247.687 320.597 C 248.514 319.673,250.235 318.360,251.512 317.679 C 252.788 316.999,254.403 315.732,255.101 314.863 C 255.933 313.828,257.430 312.761,259.448 311.763 C 261.141 310.927,262.996 309.846,263.572 309.362 C 265.268 307.935,267.634 306.857,270.611 306.154 C 276.269 304.818,280.652 303.522,282.600 302.609 C 283.866 302.016,285.775 301.570,287.800 301.393 L 291.000 301.115 292.495 302.526 C 294.819 304.719,296.189 305.205,301.800 305.824 C 314.949 307.275,317.451 307.897,320.320 310.422 C 321.306 311.290,322.277 312.000,322.478 312.000 C 322.679 312.000,323.605 312.347,324.536 312.771 C 325.466 313.195,326.715 313.664,327.311 313.813 C 327.907 313.963,329.465 315.041,330.774 316.208 C 334.471 319.507,336.880 319.251,339.829 315.248 C 342.325 311.858,342.167 315.557,342.482 253.200 C 342.642 221.630,342.878 180.682,343.006 162.204 L 343.239 128.608 342.342 125.804 C 340.530 120.138,335.931 114.258,331.221 111.587 C 329.876 110.824,327.766 109.247,326.534 108.083 C 325.301 106.919,323.724 105.728,323.030 105.438 C 322.335 105.148,321.005 104.000,320.074 102.888 C 319.142 101.775,317.408 100.316,316.219 99.646 C 315.031 98.975,313.461 97.679,312.729 96.766 C 311.583 95.334,306.556 91.600,305.774 91.600 C 305.626 91.600,304.857 91.031,304.065 90.335 C 300.125 86.876,293.099 85.709,288.092 87.683 M297.200 91.981 C 297.200 94.309,298.529 95.200,302.000 95.200 C 303.951 95.200,306.484 96.658,309.000 99.229 C 310.983 101.256,312.875 102.463,314.800 102.929 C 315.469 103.090,316.071 103.737,316.618 104.881 C 317.534 106.797,319.587 108.394,321.159 108.413 C 322.559 108.430,323.268 109.069,324.185 111.137 C 324.841 112.617,325.324 113.048,327.446 114.051 C 329.163 114.863,330.182 115.643,330.725 116.562 C 331.158 117.296,331.998 118.234,332.593 118.648 C 337.415 122.002,337.167 119.819,337.185 159.168 L 337.200 191.336 335.941 194.068 L 334.682 196.800 328.241 196.870 C 324.698 196.908,322.573 197.009,323.517 197.094 C 324.462 197.178,325.864 197.675,326.633 198.196 C 327.633 198.875,328.395 199.091,329.315 198.954 C 330.069 198.842,331.427 199.085,332.600 199.541 L 334.600 200.320 334.701 255.073 L 334.803 309.826 331.901 309.688 C 328.149 309.509,328.000 309.446,328.000 308.031 C 328.000 304.790,326.680 304.032,320.388 303.663 L 315.923 303.400 315.378 301.800 C 314.262 298.526,312.244 297.840,302.281 297.349 L 296.763 297.076 296.881 290.738 C 296.991 284.869,296.947 284.399,296.284 284.399 C 294.399 284.401,291.954 282.566,291.354 280.701 L 291.000 279.601 289.320 280.432 C 288.099 281.037,287.407 281.746,286.785 283.032 L 285.929 284.800 279.152 284.800 C 274.072 284.800,272.340 284.675,272.235 284.300 C 272.158 284.025,271.938 283.097,271.747 282.238 C 271.271 280.098,270.011 279.302,266.214 278.745 L 263.029 278.277 260.370 275.598 C 257.928 273.136,257.537 272.895,255.563 272.633 C 253.234 272.324,252.815 271.972,252.806 270.319 C 252.792 267.811,251.288 266.400,248.630 266.400 C 246.959 266.400,246.557 265.893,246.297 263.459 C 246.041 261.067,245.420 260.413,242.975 259.956 C 241.925 259.760,241.004 259.537,240.929 259.462 C 240.853 259.387,240.675 256.507,240.533 253.062 L 240.275 246.800 248.237 246.800 L 256.200 246.800 257.924 248.802 C 262.108 253.660,272.801 253.057,274.780 247.852 C 275.094 247.027,275.518 246.892,278.936 246.528 L 282.742 246.122 285.442 243.461 C 287.393 241.539,288.435 240.800,289.195 240.800 C 290.672 240.800,291.340 240.128,292.373 237.600 C 292.868 236.390,294.069 233.831,295.042 231.913 L 296.811 228.426 296.702 199.913 L 296.593 171.400 294.891 166.600 C 293.955 163.960,292.853 161.342,292.443 160.782 C 292.033 160.223,291.571 158.842,291.416 157.714 C 291.054 155.085,290.313 154.453,287.159 154.084 C 281.482 153.419,279.028 154.417,278.483 157.613 C 278.203 159.251,278.071 159.408,276.790 159.621 C 273.742 160.128,273.196 160.982,272.596 166.187 C 272.334 168.462,272.203 168.688,269.817 170.987 C 266.946 173.754,266.402 174.625,266.395 176.474 C 266.385 178.826,265.984 179.536,264.173 180.413 C 262.054 181.439,260.276 184.796,259.845 188.585 C 259.541 191.251,259.239 191.585,257.129 191.594 C 254.943 191.603,254.205 192.567,253.910 195.800 C 253.808 196.909,253.648 197.024,251.800 197.321 C 250.700 197.497,248.900 197.888,247.800 198.189 C 241.062 200.030,241.141 200.022,239.949 199.018 C 239.325 198.493,238.031 197.983,236.928 197.827 C 233.903 197.399,233.644 197.247,233.213 195.650 C 232.716 193.801,231.492 192.605,229.397 191.921 C 228.059 191.485,227.780 191.205,227.676 190.200 C 227.280 186.380,226.457 185.293,223.600 184.820 L 222.200 184.588 221.923 180.394 C 221.329 171.402,220.446 168.906,217.380 167.550 L 215.581 166.754 215.690 160.083 L 215.800 153.413 217.200 153.180 C 220.774 152.587,221.587 150.833,222.100 142.603 C 222.200 141.013,222.209 141.004,224.165 140.727 C 226.765 140.358,227.589 139.468,227.872 136.726 L 228.100 134.518 232.768 134.267 C 238.786 133.943,239.451 133.682,241.957 130.652 C 243.963 128.227,244.128 128.122,246.718 127.616 C 250.970 126.787,251.940 126.044,252.567 123.140 C 252.774 122.177,253.018 122.053,255.210 121.799 C 258.487 121.418,258.841 120.986,259.292 116.800 C 259.391 115.880,259.602 115.781,261.932 115.558 C 263.804 115.379,264.689 115.085,265.332 114.429 C 265.809 113.942,266.787 113.197,267.505 112.774 C 268.223 112.351,269.097 111.403,269.448 110.667 C 270.113 109.274,271.749 108.400,273.693 108.400 C 274.961 108.400,276.614 106.564,277.016 104.710 C 277.348 103.181,277.790 102.815,279.313 102.806 C 282.243 102.790,284.000 100.983,284.000 97.987 C 284.000 96.938,284.104 96.882,286.563 96.619 C 289.620 96.291,290.408 95.605,290.699 93.016 L 290.904 91.200 294.052 91.200 C 296.908 91.200,297.200 91.272,297.200 91.981 M207.132 97.900 C 207.094 98.285,207.025 99.680,206.978 101.000 C 206.787 106.409,200.464 114.233,194.556 116.370 L 191.158 117.600 119.079 117.600 C 36.377 117.601,41.233 117.396,39.274 120.971 C 38.143 123.034,38.244 371.611,39.376 373.482 C 40.039 374.578,40.707 374.941,43.976 375.984 L 47.800 377.204 120.800 377.302 C 205.466 377.416,196.240 376.878,201.194 381.987 C 202.847 383.691,205.314 386.327,206.677 387.843 L 209.153 390.600 208.354 388.437 C 207.081 384.989,206.620 384.312,204.004 382.036 C 202.644 380.853,200.664 379.004,199.602 377.925 C 196.504 374.778,203.109 375.034,119.000 374.795 C 42.156 374.576,41.545 374.562,40.309 373.047 C 39.236 371.732,39.236 122.668,40.309 121.353 C 41.542 119.842,42.102 119.830,118.400 119.613 C 206.005 119.363,195.629 120.049,201.563 114.115 C 206.512 109.166,207.787 106.515,208.110 100.500 C 208.249 97.899,208.172 97.200,207.743 97.200 C 207.445 97.200,207.169 97.515,207.132 97.900 M137.321 179.403 C 137.689 180.174,138.577 181.151,139.295 181.574 C 140.013 181.997,140.913 182.655,141.296 183.037 C 141.698 183.438,143.039 183.875,144.476 184.071 C 147.195 184.443,147.585 184.769,147.594 186.681 C 147.607 189.408,148.889 190.631,152.000 190.886 L 153.400 191.000 153.507 200.483 L 153.614 209.965 151.907 210.418 C 149.349 211.097,148.576 212.050,147.756 215.533 C 147.003 218.738,144.645 221.887,142.488 222.572 C 142.022 222.720,141.530 223.191,141.394 223.620 C 141.258 224.048,140.664 224.513,140.073 224.653 C 138.706 224.977,137.791 225.774,137.229 227.129 C 136.815 228.126,135.257 229.006,132.518 229.790 C 131.438 230.099,129.600 232.211,129.600 233.142 C 129.600 234.344,128.413 235.566,126.829 235.992 C 124.501 236.619,122.972 239.602,122.448 244.539 C 122.204 246.840,122.174 246.888,120.600 247.423 C 117.495 248.479,116.213 251.581,117.110 255.864 C 117.557 257.997,118.328 259.171,120.900 261.638 C 121.725 262.430,122.400 263.316,122.400 263.607 C 122.400 264.225,123.560 265.600,124.081 265.600 C 124.588 265.600,128.184 269.259,128.509 270.106 C 128.834 270.955,130.385 271.598,132.126 271.605 C 134.309 271.615,135.194 272.027,135.435 273.148 C 136.006 275.796,137.141 276.829,140.055 277.356 C 141.371 277.594,141.552 277.786,141.951 279.371 C 142.423 281.244,144.288 283.200,145.602 283.200 C 146.784 283.200,147.600 284.331,147.600 285.969 C 147.600 288.518,148.311 289.776,151.018 292.015 L 153.600 294.151 153.600 305.640 L 153.600 317.129 151.816 317.992 C 149.358 319.182,148.097 321.867,147.525 327.130 L 147.106 330.993 144.353 333.618 C 141.611 336.233,141.600 336.251,141.594 338.421 C 141.586 341.080,141.437 341.311,139.321 341.929 C 137.412 342.487,136.134 343.879,135.775 345.793 C 135.533 347.080,134.361 348.000,132.961 348.000 C 131.046 348.000,129.662 349.582,129.025 352.500 L 128.785 353.600 99.828 353.600 L 70.871 353.600 70.012 351.824 C 69.366 350.490,68.710 349.834,67.376 349.188 L 65.600 348.329 65.600 306.820 L 65.600 265.311 67.927 265.100 C 71.193 264.804,74.437 262.935,75.402 260.795 C 75.798 259.918,76.274 259.200,76.461 259.200 C 76.647 259.200,77.150 258.850,77.579 258.421 C 78.007 257.993,78.915 257.354,79.596 257.002 C 80.278 256.649,81.175 255.785,81.589 255.081 C 82.004 254.376,82.742 253.409,83.229 252.932 C 83.885 252.289,84.179 251.404,84.358 249.532 L 84.600 247.000 86.200 246.778 C 89.333 246.344,90.027 245.432,90.605 241.000 C 90.829 239.287,91.077 238.852,92.333 237.966 C 95.083 236.026,96.332 232.709,96.649 226.499 L 96.920 221.199 98.386 220.804 C 101.844 219.873,102.311 218.405,102.845 206.800 C 103.322 196.432,103.257 196.800,104.600 196.800 C 107.235 196.800,108.291 195.863,108.593 193.257 C 108.907 190.559,109.171 190.217,111.236 189.846 C 113.002 189.528,114.303 188.208,114.650 186.381 C 115.021 184.430,115.485 184.000,117.223 184.000 C 119.851 184.000,124.032 181.121,124.919 178.700 C 125.146 178.078,125.812 178.000,130.913 178.000 L 136.652 178.000 137.321 179.403 M300.630 184.358 C 299.935 184.630,300.034 184.834,301.630 186.430 L 303.400 188.200 303.614 186.400 C 303.910 183.910,303.133 183.377,300.630 184.358 M307.876 190.785 L 306.352 191.000 307.925 192.531 L 309.498 194.062 309.747 193.068 C 309.884 192.522,310.098 191.811,310.221 191.489 C 310.511 190.734,309.781 190.515,307.876 190.785 M207.661 224.578 C 211.927 225.188,212.666 225.481,215.000 227.497 C 222.275 233.778,222.122 235.498,213.555 243.738 C 210.720 246.464,208.400 248.880,208.400 249.106 C 208.400 249.602,206.121 251.647,204.501 252.604 C 203.857 252.984,202.997 253.916,202.588 254.674 C 202.180 255.432,200.484 257.436,198.820 259.126 C 197.128 260.845,195.234 263.258,194.525 264.600 C 192.812 267.841,191.584 268.873,187.699 270.334 C 185.884 271.016,183.195 272.300,181.725 273.187 C 178.065 275.394,172.294 275.628,170.441 273.644 C 169.052 272.157,167.446 268.002,166.419 263.236 C 165.972 261.165,165.364 259.185,165.066 258.836 C 163.910 257.479,162.012 250.095,162.002 246.914 C 161.995 245.014,168.238 241.600,171.719 241.600 C 172.093 241.600,173.073 240.995,173.899 240.255 C 174.724 239.516,176.282 238.524,177.360 238.051 C 178.818 237.412,180.840 235.654,185.243 231.196 C 188.501 227.898,191.219 225.188,191.283 225.174 C 196.435 224.029,202.326 223.815,207.661 224.578 M317.312 228.295 C 318.364 228.377,319.984 228.376,320.912 228.292 C 321.840 228.208,320.980 228.141,319.000 228.142 C 317.020 228.143,316.260 228.212,317.312 228.295 M327.923 232.886 C 327.557 236.730,328.033 237.217,330.494 235.512 C 331.758 234.636,331.347 233.529,329.189 231.992 L 328.084 231.205 327.923 232.886 M328.142 250.200 C 328.141 252.180,328.208 253.040,328.292 252.112 C 328.376 251.184,328.377 249.564,328.295 248.512 C 328.212 247.460,328.143 248.220,328.142 250.200 " stroke="none" fill="#9fedc2" fill-rule="evenodd"></path>
		<path id="path1" d="M288.200 65.057 C 286.737 65.497,285.658 66.221,284.180 67.755 C 282.649 69.343,281.680 69.981,280.180 70.385 C 278.164 70.929,276.400 72.156,276.400 73.015 C 276.400 73.803,274.381 75.571,272.562 76.375 C 271.486 76.852,270.492 77.699,269.879 78.666 C 268.629 80.632,267.992 81.161,264.665 82.998 C 263.161 83.829,261.001 85.496,259.865 86.703 C 258.525 88.128,256.933 89.299,255.330 90.040 C 253.886 90.707,252.757 91.507,252.611 91.966 C 252.219 93.200,249.769 95.124,247.973 95.607 C 246.775 95.930,246.156 96.388,245.668 97.314 C 244.284 99.936,242.740 101.069,238.977 102.224 C 237.010 102.828,235.183 103.490,234.918 103.695 C 234.652 103.901,234.219 103.936,233.956 103.773 C 233.692 103.610,231.861 103.152,229.886 102.756 C 225.967 101.970,223.853 100.814,222.669 98.809 C 222.173 97.970,221.625 97.586,220.877 97.555 C 219.222 97.487,217.053 97.221,216.522 97.021 C 216.259 96.922,215.971 95.977,215.884 94.921 L 215.724 93.000 215.762 95.000 L 215.800 97.000 211.600 96.917 C 209.290 96.871,207.599 96.923,207.843 97.031 C 208.431 97.293,208.112 103.264,207.397 105.400 C 206.134 109.168,205.373 110.305,201.563 114.115 C 195.629 120.049,206.005 119.363,118.400 119.613 C 42.102 119.830,41.542 119.842,40.309 121.353 C 39.236 122.668,39.236 371.732,40.309 373.047 C 41.545 374.562,42.156 374.576,119.000 374.795 C 175.167 374.955,195.337 375.132,196.292 375.475 C 197.421 375.881,199.069 377.318,205.611 383.600 C 206.562 384.514,207.451 386.008,208.169 387.900 L 209.270 390.800 215.146 390.800 C 221.197 390.800,223.396 390.281,222.495 389.064 C 222.051 388.465,222.152 386.159,222.785 382.408 C 223.113 380.466,223.195 378.070,223.018 375.576 C 222.497 368.234,225.256 363.338,231.600 360.340 C 232.590 359.872,234.332 358.533,235.472 357.365 C 236.964 355.835,238.076 355.085,239.448 354.685 C 240.950 354.247,241.442 353.884,241.776 352.965 C 242.604 350.690,243.226 350.045,245.745 348.855 C 247.785 347.892,248.503 347.294,249.342 345.863 C 250.199 344.401,250.928 343.809,253.330 342.622 C 255.288 341.654,256.654 340.658,257.421 339.639 C 258.572 338.109,262.040 335.612,264.085 334.840 C 264.682 334.615,265.616 333.726,266.160 332.863 C 267.153 331.290,268.525 330.459,272.501 329.021 C 273.858 328.530,274.469 328.065,274.637 327.396 C 275.238 325.000,278.453 324.166,289.178 323.625 C 302.950 322.931,310.657 324.021,313.612 327.083 C 315.052 328.575,315.986 329.151,317.831 329.683 C 319.766 330.242,320.696 330.843,322.909 332.972 C 324.398 334.404,326.468 336.062,327.509 336.656 C 329.914 338.029,330.750 338.733,331.589 340.093 C 331.984 340.734,333.490 341.809,335.231 342.693 C 337.642 343.917,338.374 344.518,339.125 345.892 C 339.862 347.239,340.563 347.828,342.565 348.784 C 344.608 349.758,345.253 350.310,346.001 351.720 C 346.740 353.112,347.286 353.586,348.761 354.114 C 350.357 354.685,351.678 355.601,355.400 358.713 C 355.840 359.081,356.939 359.950,357.842 360.644 L 359.483 361.906 360.142 360.791 C 361.137 359.106,361.158 116.729,360.163 113.182 C 359.448 110.634,358.109 108.942,356.488 108.538 C 354.892 108.139,351.040 105.396,350.402 104.204 C 349.847 103.168,348.433 102.147,345.439 100.622 C 344.384 100.085,343.469 99.176,342.799 98.000 C 342.003 96.602,341.270 95.958,339.519 95.119 C 337.928 94.356,336.903 93.513,336.036 92.252 C 335.082 90.866,334.371 90.322,332.855 89.818 C 331.002 89.203,330.452 88.772,327.600 85.700 C 326.936 84.985,326.319 84.400,326.228 84.400 C 325.824 84.400,319.600 79.913,319.600 79.621 C 319.600 78.886,316.909 76.741,314.718 75.729 C 312.919 74.899,312.171 74.277,311.488 73.047 C 310.762 71.737,310.163 71.275,308.200 70.510 C 306.501 69.848,305.274 69.001,304.000 67.612 C 301.214 64.576,293.792 63.375,288.200 65.057 M300.121 87.935 C 301.498 88.559,303.273 89.639,304.065 90.335 C 304.857 91.031,305.626 91.600,305.774 91.600 C 306.556 91.600,311.583 95.334,312.729 96.766 C 313.461 97.679,315.031 98.975,316.219 99.646 C 317.408 100.316,319.142 101.775,320.074 102.888 C 321.005 104.000,322.335 105.148,323.030 105.438 C 323.724 105.728,325.301 106.919,326.534 108.083 C 327.766 109.247,329.876 110.824,331.221 111.587 C 335.931 114.258,340.530 120.138,342.342 125.804 L 343.239 128.608 343.006 162.204 C 342.878 180.682,342.642 221.630,342.482 253.200 C 342.167 315.557,342.325 311.858,339.829 315.248 C 336.880 319.251,334.471 319.507,330.774 316.208 C 329.465 315.041,327.907 313.963,327.311 313.813 C 326.715 313.664,325.466 313.195,324.536 312.771 C 323.605 312.347,322.679 312.000,322.478 312.000 C 322.277 312.000,321.306 311.290,320.320 310.422 C 317.451 307.897,314.949 307.275,301.800 305.824 C 296.189 305.205,294.819 304.719,292.495 302.526 L 291.000 301.115 287.800 301.393 C 285.775 301.570,283.866 302.016,282.600 302.609 C 280.652 303.522,276.269 304.818,270.611 306.154 C 267.634 306.857,265.268 307.935,263.572 309.362 C 262.996 309.846,261.141 310.927,259.448 311.763 C 257.430 312.761,255.933 313.828,255.101 314.863 C 254.403 315.732,252.788 316.999,251.512 317.679 C 250.235 318.360,248.514 319.673,247.687 320.597 C 246.859 321.522,244.658 323.224,242.795 324.379 C 240.933 325.534,238.797 327.194,238.050 328.067 C 237.302 328.940,235.730 330.197,234.555 330.860 C 233.381 331.523,231.671 332.960,230.755 334.054 C 229.839 335.147,228.249 336.468,227.222 336.989 C 226.158 337.528,224.881 338.617,224.258 339.516 C 223.487 340.629,222.310 341.525,220.281 342.544 C 218.697 343.340,216.416 344.907,215.214 346.025 C 213.877 347.270,211.703 348.685,209.614 349.672 C 207.736 350.559,205.570 351.877,204.800 352.601 C 201.961 355.270,201.102 355.341,168.200 355.631 C 145.514 355.831,138.465 356.012,136.600 356.442 C 132.552 357.375,65.863 357.253,64.138 356.310 C 62.789 355.571,61.931 354.581,59.867 351.383 C 57.441 347.623,57.574 350.490,57.721 305.200 C 57.864 260.854,57.842 261.354,59.864 256.772 L 61.000 254.200 61.200 200.800 L 61.400 147.400 62.538 144.338 C 63.210 142.532,64.164 140.810,64.864 140.138 L 66.052 139.000 135.926 138.762 C 184.196 138.598,206.684 138.386,208.659 138.078 C 213.651 137.300,215.201 136.757,217.079 135.131 C 219.337 133.177,220.829 132.432,225.690 130.826 C 228.746 129.816,229.998 129.164,231.537 127.780 C 233.809 125.738,234.653 125.365,238.310 124.787 C 240.842 124.387,241.118 124.236,243.000 122.209 C 244.103 121.021,246.077 119.493,247.400 118.802 C 248.720 118.113,250.526 116.787,251.413 115.856 C 252.300 114.926,254.190 113.463,255.613 112.606 C 257.036 111.750,258.290 110.938,258.400 110.803 C 259.110 109.931,263.879 106.287,264.929 105.815 C 266.520 105.098,267.113 104.584,268.525 102.694 C 269.143 101.866,270.542 100.736,271.633 100.183 C 272.922 99.530,274.114 98.487,275.034 97.206 C 275.813 96.121,277.114 94.841,277.925 94.361 C 280.772 92.676,282.615 91.403,284.292 89.965 C 288.222 86.594,295.192 85.700,300.121 87.935 M194.600 224.630 C 192.840 224.915,191.347 225.160,191.283 225.174 C 191.219 225.188,188.501 227.898,185.243 231.196 C 180.840 235.654,178.818 237.412,177.360 238.051 C 176.282 238.524,174.724 239.516,173.899 240.255 C 173.073 240.995,172.093 241.600,171.719 241.600 C 168.238 241.600,161.995 245.014,162.002 246.914 C 162.012 250.095,163.910 257.479,165.066 258.836 C 165.364 259.185,165.972 261.165,166.419 263.236 C 167.446 268.002,169.052 272.157,170.441 273.644 C 172.294 275.628,178.065 275.394,181.725 273.187 C 183.195 272.300,185.884 271.016,187.699 270.334 C 191.584 268.873,192.812 267.841,194.525 264.600 C 195.234 263.258,197.128 260.845,198.820 259.126 C 200.484 257.436,202.180 255.432,202.588 254.674 C 202.997 253.916,203.857 252.984,204.501 252.604 C 206.121 251.647,208.400 249.602,208.400 249.106 C 208.400 248.880,210.720 246.464,213.555 243.738 C 222.122 235.498,222.275 233.778,215.000 227.497 C 211.351 224.346,203.319 223.217,194.600 224.630 " stroke="none" fill="#fafbfb" fill-rule="evenodd"></path>
		<path id="path2" d="M287.200 35.323 C 285.723 35.826,284.870 37.397,284.823 39.700 L 284.800 40.800 279.100 40.824 C 265.539 40.880,266.001 40.741,265.999 44.776 L 265.998 47.000 263.499 47.000 C 259.709 47.000,259.600 47.095,259.600 50.387 L 259.600 53.200 257.900 53.251 C 256.965 53.279,255.570 53.324,254.800 53.351 L 253.400 53.400 253.313 56.153 C 253.206 59.571,253.689 59.253,248.066 59.612 C 241.699 60.018,241.655 60.046,241.013 64.054 L 240.781 65.509 238.215 65.784 C 235.134 66.114,234.791 66.466,234.508 69.585 C 234.267 72.242,234.304 72.216,231.000 72.061 C 228.714 71.954,228.461 72.269,228.323 75.409 L 228.200 78.200 226.800 78.076 C 226.030 78.008,224.680 78.108,223.800 78.297 C 222.074 78.669,222.180 78.417,222.057 82.445 L 222.000 84.290 219.363 84.502 C 216.125 84.762,216.105 84.782,215.770 88.061 C 215.356 92.104,215.825 94.705,216.760 93.550 C 217.289 92.897,218.032 92.630,219.704 92.491 L 221.941 92.306 223.171 94.742 C 224.580 97.535,225.824 98.102,231.570 98.574 C 236.239 98.958,241.600 96.836,241.600 94.605 C 241.600 93.805,243.881 92.307,245.864 91.803 C 247.295 91.440,247.729 91.083,248.491 89.642 C 249.357 88.004,249.889 87.602,253.368 85.953 C 254.010 85.649,255.104 84.590,255.799 83.600 C 256.576 82.494,258.162 81.106,259.916 80.000 C 261.486 79.010,263.133 77.727,263.576 77.149 C 264.018 76.571,265.679 75.311,267.266 74.349 C 268.853 73.387,271.333 71.403,272.776 69.940 C 274.657 68.032,275.889 67.135,277.129 66.768 C 278.479 66.368,279.021 65.936,279.605 64.789 C 282.601 58.918,308.400 58.947,308.400 64.821 C 308.400 65.733,309.058 66.216,311.152 66.838 C 312.350 67.193,313.883 68.257,315.996 70.196 C 317.787 71.841,320.206 73.586,321.748 74.344 C 323.657 75.284,324.588 76.013,325.047 76.927 C 325.838 78.501,326.829 79.339,329.400 80.605 C 330.808 81.299,331.755 82.145,332.600 83.465 C 333.260 84.496,334.070 85.459,334.400 85.605 C 338.146 87.260,339.050 87.900,339.944 89.531 C 340.466 90.482,341.098 91.322,341.347 91.397 C 341.596 91.472,342.323 91.649,342.963 91.790 C 343.613 91.934,345.289 93.164,346.763 94.580 C 348.213 95.973,350.790 97.953,352.490 98.980 C 354.189 100.007,355.938 101.332,356.376 101.924 C 358.251 104.455,358.683 104.862,360.243 105.565 C 362.988 106.801,363.865 108.376,364.385 113.000 C 365.235 120.569,364.771 361.301,363.901 363.845 C 362.411 368.202,359.877 369.983,358.108 367.916 C 356.106 365.575,354.758 364.429,352.689 363.306 C 351.480 362.651,350.150 361.490,349.425 360.457 C 348.530 359.183,347.673 358.514,346.245 357.974 C 343.892 357.085,342.564 355.911,341.931 354.159 C 341.539 353.076,341.068 352.713,339.138 352.009 C 337.355 351.359,336.420 350.693,335.110 349.140 C 334.172 348.027,332.683 346.753,331.802 346.308 C 328.898 344.842,324.800 341.685,324.800 340.913 C 324.800 340.516,323.587 339.735,321.074 338.511 C 319.879 337.929,318.891 337.094,318.474 336.314 C 317.409 334.323,316.112 333.308,314.286 333.034 C 311.948 332.683,308.790 331.150,306.914 329.456 C 302.873 325.805,286.298 325.653,282.166 329.229 C 280.237 330.899,277.902 332.057,274.430 333.067 C 271.862 333.813,270.800 334.398,270.800 335.066 C 270.800 336.039,268.604 338.097,266.637 338.968 C 265.495 339.473,263.743 340.765,262.648 341.908 C 261.574 343.029,260.179 344.160,259.548 344.422 C 258.917 344.683,258.400 345.016,258.400 345.162 C 258.400 345.308,257.864 345.744,257.208 346.132 C 256.552 346.519,255.157 347.700,254.108 348.756 C 251.796 351.081,250.278 352.134,248.319 352.769 C 247.486 353.039,246.730 353.590,246.591 354.027 C 245.960 356.017,243.022 358.400,241.201 358.400 C 240.677 358.400,240.107 358.864,239.681 359.639 C 238.397 361.976,237.496 362.856,235.449 363.776 C 233.377 364.707,233.009 365.015,230.786 367.681 C 230.106 368.495,229.200 369.273,228.771 369.409 C 227.250 369.892,226.650 371.875,226.760 376.058 C 226.913 381.858,226.559 383.610,225.125 384.151 C 224.301 384.462,224.011 384.799,224.141 385.296 C 224.242 385.683,224.143 386.000,223.920 386.000 C 223.697 386.000,223.616 386.264,223.740 386.587 C 223.864 386.910,223.790 387.283,223.576 387.415 C 223.362 387.547,223.291 387.823,223.417 388.028 C 223.544 388.232,223.345 388.400,222.975 388.400 C 222.422 388.400,222.391 388.507,222.800 389.000 C 223.200 389.482,223.194 389.600,222.769 389.600 C 222.346 389.600,222.340 389.700,222.740 390.100 C 224.115 391.476,240.792 390.909,240.804 389.486 C 240.806 389.219,241.500 388.710,242.345 388.355 C 243.461 387.886,244.089 387.266,244.641 386.086 L 245.400 384.462 248.352 384.179 C 251.751 383.853,252.797 383.130,252.805 381.100 C 252.817 378.270,253.062 378.000,255.618 378.000 C 258.674 378.000,259.200 377.467,259.200 374.371 L 259.200 372.000 261.771 372.000 C 265.147 372.000,265.600 371.547,265.600 368.171 L 265.600 365.600 268.637 365.600 C 271.321 365.600,271.699 365.508,271.881 364.813 C 271.994 364.381,272.428 363.918,272.845 363.786 C 274.183 363.361,275.934 361.613,276.190 360.445 C 276.431 359.348,276.536 359.305,279.517 359.080 C 283.263 358.796,284.000 358.151,284.000 355.156 L 284.000 353.200 286.771 353.200 C 290.368 353.200,290.800 352.790,290.800 349.371 L 290.800 346.800 292.373 346.800 C 293.588 346.800,294.003 346.980,294.197 347.590 C 294.335 348.024,294.977 348.756,295.624 349.217 C 296.304 349.701,296.803 350.423,296.806 350.927 C 296.818 352.569,297.418 352.951,300.273 353.129 C 303.290 353.318,303.585 353.542,303.594 355.656 C 303.605 358.216,304.514 358.846,308.564 359.098 C 312.434 359.340,315.600 361.424,315.600 363.731 C 315.600 365.211,316.366 365.600,319.280 365.600 L 322.000 365.600 322.070 366.900 C 322.109 367.615,322.096 368.875,322.043 369.700 C 321.926 371.510,322.818 372.000,326.226 372.000 L 328.400 372.000 328.400 374.586 C 328.400 377.652,328.780 378.000,332.131 378.000 C 334.574 378.000,334.800 378.240,334.800 380.833 C 334.800 382.988,335.870 384.000,338.150 384.000 C 341.387 384.000,342.142 384.323,342.866 386.020 C 343.675 387.915,346.159 389.390,346.850 388.385 C 347.152 387.946,347.188 388.029,346.993 388.719 C 346.552 390.285,347.407 390.800,350.449 390.800 C 353.506 390.800,353.427 390.705,353.220 394.116 C 353.083 396.379,353.652 396.800,356.849 396.800 L 359.600 396.800 359.600 398.400 L 359.600 400.000 372.000 400.000 L 384.400 400.000 384.400 397.011 L 384.400 394.021 386.176 392.245 C 387.153 391.268,388.322 390.352,388.775 390.208 C 390.207 389.754,390.200 390.432,390.200 246.254 L 390.200 104.707 389.273 104.054 C 388.763 103.694,387.481 102.589,386.423 101.599 L 384.501 99.797 384.335 95.675 C 384.144 90.903,383.972 90.661,381.000 90.970 C 378.393 91.241,378.171 91.047,377.851 88.200 C 377.695 86.812,377.329 85.611,376.984 85.351 C 376.293 84.832,372.002 84.271,371.165 84.591 C 370.759 84.746,370.588 84.461,370.556 83.574 C 370.496 81.888,369.223 80.316,367.357 79.621 C 366.501 79.302,365.692 78.885,365.560 78.694 C 365.428 78.504,363.951 78.244,362.277 78.117 L 359.233 77.887 359.116 75.044 L 359.000 72.200 357.600 72.151 C 356.830 72.124,355.550 72.079,354.755 72.051 L 353.310 72.000 353.098 69.363 C 352.837 66.108,352.693 65.963,349.465 65.704 L 346.856 65.495 346.528 63.059 C 346.140 60.173,345.421 59.615,342.080 59.606 C 340.008 59.600,339.945 59.566,339.341 58.100 C 338.485 56.022,337.304 54.856,335.764 54.567 C 335.044 54.432,334.354 54.057,334.230 53.735 C 334.095 53.382,333.566 53.182,332.903 53.234 C 332.296 53.282,330.945 53.293,329.900 53.260 L 328.000 53.200 328.000 50.390 C 328.000 47.153,327.608 46.800,324.013 46.800 L 322.079 46.800 321.798 44.382 C 321.445 41.340,320.663 40.714,317.325 40.803 C 316.046 40.838,312.255 40.851,308.900 40.833 L 302.800 40.800 302.800 39.460 C 302.800 37.426,302.072 35.761,300.961 35.255 C 299.621 34.644,289.037 34.696,287.200 35.323 M28.874 91.286 C 28.613 91.547,28.400 92.782,28.400 94.031 C 28.400 96.671,27.885 97.317,26.071 96.954 C 25.388 96.818,24.224 96.819,23.485 96.958 L 22.142 97.210 22.065 100.078 C 21.972 103.539,22.241 103.256,19.027 103.275 C 16.891 103.287,16.305 103.430,15.992 104.015 C 15.744 104.478,15.604 155.967,15.604 247.143 C 15.604 402.580,15.430 390.784,17.729 390.810 C 19.116 390.826,22.061 393.858,22.137 395.349 L 22.200 396.600 25.100 396.718 L 28.000 396.835 28.000 398.418 L 28.000 400.000 117.200 400.000 L 206.400 400.000 206.400 398.425 C 206.400 396.941,206.475 396.843,207.700 396.725 L 209.000 396.600 209.117 393.712 C 209.249 390.459,209.695 390.874,205.124 389.992 C 202.291 389.446,201.139 388.559,200.087 386.113 C 199.633 385.057,198.664 383.748,197.931 383.198 L 196.600 382.200 120.800 382.000 L 45.000 381.800 43.078 380.913 C 40.439 379.695,37.010 376.221,36.448 374.197 C 35.681 371.434,35.827 122.327,36.598 119.733 C 37.314 117.322,40.587 113.972,43.038 113.143 C 44.300 112.717,58.978 112.568,119.400 112.372 C 160.540 112.238,194.830 111.988,195.600 111.817 C 197.496 111.395,198.500 110.386,199.943 107.455 C 200.614 106.093,201.711 104.573,202.381 104.077 C 203.550 103.213,203.600 103.054,203.600 100.188 L 203.600 97.200 205.100 97.194 C 208.370 97.181,208.163 94.279,204.791 92.866 C 203.916 92.500,203.099 91.886,202.974 91.501 C 202.685 90.613,29.761 90.399,28.874 91.286 " stroke="none" fill="#454d55" fill-rule="evenodd"></path>
		<path id="path3" d="M287.800 60.856 C 282.784 61.493,280.802 62.444,279.605 64.789 C 279.021 65.936,278.479 66.368,277.129 66.768 C 275.889 67.135,274.657 68.032,272.776 69.940 C 271.333 71.403,268.853 73.387,267.266 74.349 C 265.679 75.311,264.018 76.571,263.576 77.149 C 263.133 77.727,261.486 79.010,259.916 80.000 C 258.162 81.106,256.576 82.494,255.799 83.600 C 255.104 84.590,254.010 85.649,253.368 85.953 C 249.889 87.602,249.357 88.004,248.491 89.642 C 247.729 91.083,247.295 91.440,245.864 91.803 C 243.881 92.307,241.600 93.805,241.600 94.605 C 241.600 96.836,236.239 98.958,231.570 98.574 C 225.850 98.104,224.578 97.529,223.194 94.789 C 222.030 92.482,221.935 92.400,220.420 92.400 C 217.422 92.400,215.659 93.785,216.152 95.752 C 216.362 96.587,218.000 97.065,218.000 96.291 C 218.000 96.105,218.218 96.088,218.485 96.252 C 218.752 96.417,219.565 96.512,220.292 96.463 C 221.388 96.389,221.902 96.675,223.307 98.137 C 225.532 100.455,226.216 100.769,230.760 101.566 L 234.600 102.240 238.099 101.084 C 241.295 100.029,241.763 99.737,243.488 97.718 C 244.526 96.502,246.282 94.996,247.388 94.371 C 248.495 93.746,250.293 92.326,251.385 91.217 C 252.477 90.108,253.571 89.200,253.816 89.200 C 254.769 89.200,258.107 86.612,258.460 85.600 C 258.729 84.829,259.799 83.995,262.316 82.595 C 264.543 81.356,266.699 79.741,268.293 78.117 C 269.716 76.667,271.564 75.244,272.598 74.801 C 273.662 74.345,274.557 73.647,274.765 73.112 C 275.270 71.812,277.142 70.150,278.953 69.394 C 279.807 69.037,281.461 67.842,282.628 66.738 C 287.646 61.992,300.811 61.900,305.359 66.579 C 306.280 67.527,307.926 68.758,309.017 69.315 C 310.108 69.872,311.948 71.334,313.107 72.564 C 314.266 73.794,315.451 74.800,315.741 74.800 C 316.524 74.800,320.653 77.795,323.106 80.142 C 324.289 81.274,325.950 82.560,326.796 83.000 C 327.643 83.440,329.092 84.663,330.016 85.717 C 330.941 86.771,332.441 88.008,333.349 88.466 C 334.257 88.924,335.995 90.241,337.212 91.393 C 338.428 92.545,339.980 93.776,340.660 94.127 C 341.340 94.479,342.691 95.651,343.662 96.731 C 344.633 97.811,346.710 99.517,348.277 100.521 C 349.844 101.525,352.292 103.404,353.718 104.697 C 355.144 105.989,357.186 107.495,358.255 108.044 C 362.190 110.063,361.786 95.791,361.898 236.600 L 361.996 359.800 360.765 361.943 L 359.534 364.087 358.467 363.084 C 357.880 362.532,356.550 361.548,355.512 360.898 C 354.474 360.247,352.958 359.067,352.143 358.276 C 351.329 357.485,349.620 356.283,348.346 355.604 C 347.004 354.888,345.567 353.725,344.930 352.840 C 344.326 351.999,342.774 350.626,341.481 349.789 C 340.189 348.952,338.576 347.577,337.898 346.733 C 337.220 345.889,335.300 344.362,333.633 343.340 C 331.965 342.318,329.880 340.827,329.000 340.028 C 326.937 338.153,324.467 336.270,323.200 335.605 C 322.650 335.317,321.604 334.391,320.875 333.548 C 320.002 332.537,318.365 331.455,316.075 330.373 C 314.164 329.470,312.050 328.206,311.378 327.563 C 308.732 325.032,306.651 324.680,294.400 324.691 C 281.704 324.703,279.630 325.075,276.359 327.931 C 275.391 328.775,273.220 330.126,271.533 330.932 C 269.350 331.976,268.230 332.780,267.647 333.724 C 267.129 334.563,265.785 335.622,263.991 336.605 C 262.431 337.460,260.441 338.934,259.569 339.880 C 258.697 340.826,257.903 341.600,257.804 341.600 C 257.199 341.600,251.934 345.411,250.600 346.814 C 249.720 347.740,248.081 349.094,246.958 349.824 C 245.835 350.553,244.165 352.047,243.248 353.143 C 242.331 354.238,240.602 355.687,239.406 356.362 C 238.211 357.036,236.820 358.150,236.316 358.836 C 235.812 359.521,234.322 360.628,233.005 361.295 C 226.490 364.593,224.016 368.908,224.116 376.800 C 224.182 381.973,223.831 384.400,223.016 384.400 C 222.631 384.400,222.481 384.910,222.510 386.116 C 222.532 387.060,222.429 388.030,222.280 388.271 C 222.131 388.512,222.322 388.955,222.704 389.255 C 223.334 389.748,223.348 389.733,222.851 389.100 C 222.375 388.493,222.392 388.400,222.975 388.400 C 223.345 388.400,223.544 388.232,223.417 388.028 C 223.291 387.823,223.362 387.547,223.576 387.415 C 223.790 387.283,223.864 386.910,223.740 386.587 C 223.616 386.264,223.697 386.000,223.920 386.000 C 224.143 386.000,224.242 385.683,224.141 385.296 C 224.011 384.799,224.301 384.462,225.125 384.151 C 226.559 383.610,226.913 381.858,226.760 376.058 C 226.650 371.875,227.250 369.892,228.771 369.409 C 229.200 369.273,230.106 368.495,230.786 367.681 C 233.009 365.015,233.377 364.707,235.449 363.776 C 237.496 362.856,238.397 361.976,239.681 359.639 C 240.107 358.864,240.677 358.400,241.201 358.400 C 243.022 358.400,245.960 356.017,246.591 354.027 C 246.730 353.590,247.486 353.039,248.319 352.769 C 250.278 352.134,251.796 351.081,254.108 348.756 C 255.157 347.700,256.552 346.519,257.208 346.132 C 257.864 345.744,258.400 345.308,258.400 345.162 C 258.400 345.016,258.917 344.683,259.548 344.422 C 260.179 344.160,261.574 343.029,262.648 341.908 C 263.743 340.765,265.495 339.473,266.637 338.968 C 268.604 338.097,270.800 336.039,270.800 335.066 C 270.800 334.398,271.862 333.813,274.430 333.067 C 277.902 332.057,280.237 330.899,282.166 329.229 C 286.298 325.653,302.873 325.805,306.914 329.456 C 308.790 331.150,311.948 332.683,314.286 333.034 C 316.112 333.308,317.409 334.323,318.474 336.314 C 318.891 337.094,319.879 337.929,321.074 338.511 C 323.587 339.735,324.800 340.516,324.800 340.913 C 324.800 341.685,328.898 344.842,331.802 346.308 C 332.683 346.753,334.172 348.027,335.110 349.140 C 336.420 350.693,337.355 351.359,339.138 352.009 C 341.068 352.713,341.539 353.076,341.931 354.159 C 342.564 355.911,343.892 357.085,346.245 357.974 C 347.673 358.514,348.530 359.183,349.425 360.457 C 350.150 361.490,351.480 362.651,352.689 363.306 C 354.758 364.429,356.106 365.575,358.108 367.916 C 359.877 369.983,362.411 368.202,363.901 363.845 C 364.771 361.301,365.235 120.569,364.385 113.000 C 363.865 108.376,362.988 106.801,360.243 105.565 C 358.683 104.862,358.251 104.455,356.376 101.924 C 355.938 101.332,354.189 100.007,352.490 98.980 C 350.790 97.953,348.213 95.973,346.763 94.580 C 345.289 93.164,343.613 91.934,342.963 91.790 C 342.323 91.649,341.596 91.472,341.347 91.397 C 341.098 91.322,340.466 90.482,339.944 89.531 C 339.050 87.900,338.146 87.260,334.400 85.605 C 334.070 85.459,333.260 84.496,332.600 83.465 C 331.755 82.145,330.808 81.299,329.400 80.605 C 326.829 79.339,325.838 78.501,325.047 76.927 C 324.588 76.013,323.657 75.284,321.748 74.344 C 320.206 73.586,317.787 71.841,315.996 70.196 C 313.883 68.257,312.350 67.193,311.152 66.838 C 309.058 66.216,308.400 65.733,308.400 64.821 C 308.400 61.560,298.014 59.561,287.800 60.856 M205.300 97.093 L 203.600 97.246 203.600 100.211 C 203.600 103.052,203.549 103.214,202.381 104.077 C 201.711 104.573,200.614 106.093,199.943 107.455 C 198.500 110.386,197.496 111.395,195.600 111.817 C 194.830 111.988,160.540 112.238,119.400 112.372 C 58.978 112.568,44.300 112.717,43.038 113.143 C 40.587 113.972,37.314 117.322,36.598 119.733 C 35.827 122.327,35.681 371.434,36.448 374.197 C 37.010 376.221,40.439 379.695,43.078 380.913 L 45.000 381.800 120.800 382.000 L 196.600 382.200 197.931 383.198 C 198.664 383.748,199.633 385.057,200.087 386.113 C 201.139 388.559,202.291 389.446,205.124 389.992 C 206.376 390.234,207.825 390.523,208.343 390.634 C 209.387 390.859,206.996 387.966,201.194 381.985 C 196.240 376.878,205.464 377.416,120.800 377.302 L 47.800 377.204 43.976 375.984 C 40.707 374.941,40.039 374.578,39.376 373.482 C 38.244 371.611,38.143 123.034,39.274 120.971 C 41.233 117.396,36.377 117.601,119.079 117.600 L 191.158 117.600 194.556 116.370 C 200.296 114.294,206.923 106.244,206.881 101.400 C 206.872 100.300,207.015 98.815,207.200 98.100 C 207.384 97.385,207.415 96.831,207.268 96.870 C 207.120 96.908,206.235 97.009,205.300 97.093 " stroke="none" fill="#94979d" fill-rule="evenodd"></path>
		<path id="path4" d="M290.699 93.016 C 290.408 95.605,289.620 96.291,286.563 96.619 C 284.104 96.882,284.000 96.938,284.000 97.987 C 284.000 100.983,282.243 102.790,279.313 102.806 C 277.790 102.815,277.348 103.181,277.016 104.710 C 276.614 106.564,274.961 108.400,273.693 108.400 C 271.749 108.400,270.113 109.274,269.448 110.667 C 269.097 111.403,268.223 112.351,267.505 112.774 C 266.787 113.197,265.809 113.942,265.332 114.429 C 264.689 115.085,263.804 115.379,261.932 115.558 C 259.602 115.781,259.391 115.880,259.292 116.800 C 258.841 120.986,258.487 121.418,255.210 121.799 C 253.018 122.053,252.774 122.177,252.567 123.140 C 251.940 126.044,250.970 126.787,246.718 127.616 C 244.128 128.122,243.963 128.227,241.957 130.652 C 239.451 133.682,238.786 133.943,232.768 134.267 L 228.100 134.518 227.872 136.726 C 227.589 139.468,226.765 140.358,224.165 140.727 C 222.209 141.004,222.200 141.013,222.100 142.603 C 221.587 150.833,220.774 152.587,217.200 153.180 L 215.800 153.413 215.690 160.083 L 215.581 166.754 217.380 167.550 C 220.446 168.906,221.329 171.402,221.923 180.394 L 222.200 184.588 223.600 184.820 C 226.457 185.293,227.280 186.380,227.676 190.200 C 227.780 191.205,228.059 191.485,229.397 191.921 C 231.492 192.605,232.716 193.801,233.213 195.650 C 233.644 197.247,233.903 197.399,236.928 197.827 C 238.031 197.983,239.325 198.493,239.949 199.018 C 241.141 200.022,241.062 200.030,247.800 198.189 C 248.900 197.888,250.700 197.497,251.800 197.321 C 253.648 197.024,253.808 196.909,253.910 195.800 C 254.205 192.567,254.943 191.603,257.129 191.594 C 259.239 191.585,259.541 191.251,259.845 188.585 C 260.276 184.796,262.054 181.439,264.173 180.413 C 265.984 179.536,266.385 178.826,266.395 176.474 C 266.402 174.625,266.946 173.754,269.817 170.987 C 272.203 168.688,272.334 168.462,272.596 166.187 C 273.196 160.982,273.742 160.128,276.790 159.621 C 278.071 159.408,278.203 159.251,278.483 157.613 C 279.028 154.417,281.482 153.419,287.159 154.084 C 290.313 154.453,291.054 155.085,291.416 157.714 C 291.571 158.842,292.033 160.223,292.443 160.782 C 292.853 161.342,293.955 163.960,294.891 166.600 L 296.593 171.400 296.702 199.913 L 296.811 228.426 295.042 231.913 C 294.069 233.831,292.868 236.390,292.373 237.600 C 291.340 240.128,290.672 240.800,289.195 240.800 C 288.435 240.800,287.393 241.539,285.442 243.461 L 282.742 246.122 278.936 246.528 C 275.518 246.892,275.094 247.027,274.780 247.852 C 272.801 253.057,262.108 253.660,257.924 248.802 L 256.200 246.800 248.237 246.800 L 240.275 246.800 240.533 253.062 C 240.675 256.507,240.853 259.387,240.929 259.462 C 241.004 259.537,241.925 259.760,242.975 259.956 C 245.420 260.413,246.041 261.067,246.297 263.459 C 246.557 265.893,246.959 266.400,248.630 266.400 C 251.288 266.400,252.792 267.811,252.806 270.319 C 252.815 271.972,253.234 272.324,255.563 272.633 C 257.537 272.895,257.928 273.136,260.370 275.598 L 263.029 278.277 266.214 278.745 C 270.011 279.302,271.271 280.098,271.747 282.238 C 271.938 283.097,272.158 284.025,272.235 284.300 C 272.340 284.675,274.072 284.800,279.152 284.800 L 285.929 284.800 286.785 283.032 C 287.407 281.746,288.099 281.037,289.320 280.432 L 291.000 279.601 291.354 280.701 C 291.954 282.566,294.399 284.401,296.284 284.399 C 296.947 284.399,296.991 284.869,296.881 290.738 L 296.763 297.076 302.281 297.349 C 312.244 297.840,314.262 298.526,315.378 301.800 L 315.923 303.400 320.388 303.663 C 326.680 304.032,328.000 304.790,328.000 308.031 C 328.000 309.446,328.149 309.509,331.901 309.688 L 334.803 309.826 334.701 255.073 L 334.600 200.320 332.600 199.541 C 331.427 199.085,330.069 198.842,329.315 198.954 C 328.395 199.091,327.633 198.875,326.633 198.196 C 325.864 197.675,324.462 197.178,323.517 197.094 C 322.573 197.009,324.698 196.908,328.241 196.870 L 334.682 196.800 335.941 194.068 L 337.200 191.336 337.185 159.168 C 337.167 119.819,337.415 122.002,332.593 118.648 C 331.998 118.234,331.158 117.296,330.725 116.562 C 330.182 115.643,329.163 114.863,327.446 114.051 C 325.324 113.048,324.841 112.617,324.185 111.137 C 323.268 109.069,322.559 108.430,321.159 108.413 C 319.587 108.394,317.534 106.797,316.618 104.881 C 316.071 103.737,315.469 103.090,314.800 102.929 C 312.875 102.463,310.983 101.256,309.000 99.229 C 306.484 96.658,303.951 95.200,302.000 95.200 C 298.529 95.200,297.200 94.309,297.200 91.981 C 297.200 91.272,296.908 91.200,294.052 91.200 L 290.904 91.200 290.699 93.016 M124.919 178.700 C 124.032 181.121,119.851 184.000,117.223 184.000 C 115.485 184.000,115.021 184.430,114.650 186.381 C 114.303 188.208,113.002 189.528,111.236 189.846 C 109.171 190.217,108.907 190.559,108.593 193.257 C 108.291 195.863,107.235 196.800,104.600 196.800 C 103.257 196.800,103.322 196.432,102.845 206.800 C 102.311 218.405,101.844 219.873,98.386 220.804 L 96.920 221.199 96.649 226.499 C 96.332 232.709,95.083 236.026,92.333 237.966 C 91.077 238.852,90.829 239.287,90.605 241.000 C 90.027 245.432,89.333 246.344,86.200 246.778 L 84.600 247.000 84.358 249.532 C 84.179 251.404,83.885 252.289,83.229 252.932 C 82.742 253.409,82.004 254.376,81.589 255.081 C 81.175 255.785,80.278 256.649,79.596 257.002 C 78.915 257.354,78.007 257.993,77.579 258.421 C 77.150 258.850,76.647 259.200,76.461 259.200 C 76.274 259.200,75.798 259.918,75.402 260.795 C 74.437 262.935,71.193 264.804,67.927 265.100 L 65.600 265.311 65.600 306.820 L 65.600 348.329 67.376 349.188 C 68.710 349.834,69.366 350.490,70.012 351.824 L 70.871 353.600 99.828 353.600 L 128.785 353.600 129.025 352.500 C 129.662 349.582,131.046 348.000,132.961 348.000 C 134.361 348.000,135.533 347.080,135.775 345.793 C 136.134 343.879,137.412 342.487,139.321 341.929 C 141.437 341.311,141.586 341.080,141.594 338.421 C 141.600 336.251,141.611 336.233,144.353 333.618 L 147.106 330.993 147.525 327.130 C 148.097 321.867,149.358 319.182,151.816 317.992 L 153.600 317.129 153.600 305.640 L 153.600 294.151 151.018 292.015 C 148.311 289.776,147.600 288.518,147.600 285.969 C 147.600 284.331,146.784 283.200,145.602 283.200 C 144.288 283.200,142.423 281.244,141.951 279.371 C 141.552 277.786,141.371 277.594,140.055 277.356 C 137.141 276.829,136.006 275.796,135.435 273.148 C 135.194 272.027,134.309 271.615,132.126 271.605 C 130.385 271.598,128.834 270.955,128.509 270.106 C 128.184 269.259,124.588 265.600,124.081 265.600 C 123.560 265.600,122.400 264.225,122.400 263.607 C 122.400 263.316,121.725 262.430,120.900 261.638 C 118.328 259.171,117.557 257.997,117.110 255.864 C 116.213 251.581,117.495 248.479,120.600 247.423 C 122.174 246.888,122.204 246.840,122.448 244.539 C 122.972 239.602,124.501 236.619,126.829 235.992 C 128.413 235.566,129.600 234.344,129.600 233.142 C 129.600 232.211,131.438 230.099,132.518 229.790 C 135.257 229.006,136.815 228.126,137.229 227.129 C 137.791 225.774,138.706 224.977,140.073 224.653 C 140.664 224.513,141.258 224.048,141.394 223.620 C 141.530 223.191,142.022 222.720,142.488 222.572 C 144.645 221.887,147.003 218.738,147.756 215.533 C 148.576 212.050,149.349 211.097,151.907 210.418 L 153.614 209.965 153.507 200.483 L 153.400 191.000 152.000 190.886 C 148.889 190.631,147.607 189.408,147.594 186.681 C 147.585 184.769,147.195 184.443,144.476 184.071 C 143.039 183.875,141.698 183.438,141.296 183.037 C 140.913 182.655,140.013 181.997,139.295 181.574 C 138.577 181.151,137.689 180.174,137.321 179.403 L 136.652 178.000 130.913 178.000 C 125.812 178.000,125.146 178.078,124.919 178.700 M303.691 184.300 C 303.766 184.465,303.732 185.410,303.614 186.400 L 303.400 188.200 301.630 186.430 C 300.034 184.834,299.935 184.630,300.630 184.358 C 301.650 183.958,303.517 183.923,303.691 184.300 M310.221 191.489 C 310.098 191.811,309.884 192.522,309.747 193.068 L 309.498 194.062 307.925 192.531 L 306.352 191.000 307.876 190.785 C 309.781 190.515,310.511 190.734,310.221 191.489 M320.912 228.292 C 319.984 228.376,318.364 228.377,317.312 228.295 C 316.260 228.212,317.020 228.143,319.000 228.142 C 320.980 228.141,321.840 228.208,320.912 228.292 M330.941 233.767 C 331.563 234.715,331.546 234.783,330.494 235.512 C 328.033 237.217,327.557 236.730,327.923 232.886 L 328.084 231.205 329.189 231.992 C 329.797 232.425,330.586 233.224,330.941 233.767 M328.292 252.112 C 328.208 253.040,328.141 252.180,328.142 250.200 C 328.143 248.220,328.212 247.460,328.295 248.512 C 328.377 249.564,328.376 251.184,328.292 252.112 " stroke="none" fill="#7ccc9c" fill-rule="evenodd"></path>
	</g>
</svg>