<svg t="1655291380249" class="icon" viewBox="0 0 1024 1024" version="1.1" xmlns="http://www.w3.org/2000/svg" p-id="902" width="16" height="16">
	<path d="M682.666667 512a170.666667 170.666667 0 1 1-341.333334 0 170.666667 170.666667 0 0 1 341.333334 0z m-85.333334 0a85.333333 85.333333 0 1 0-170.666666 0 85.333333 85.333333 0 0 0 170.666666 0z" p-id="903" fill="#515151"></path>
	<path d="M512 213.248c184.405333 0 344.746667 120.874667 426.666667 298.752-81.92 177.92-242.261333 298.752-426.666667 298.752S167.253333 689.92 85.333333 512c81.92-177.92 242.261333-298.752 426.666667-298.752z m0 512.170667c132.949333 0 256.768-80.426667 331.008-213.418667-74.24-132.992-198.058667-213.418667-331.008-213.418667-132.949333 0-256.810667 80.426667-331.008 213.418667 74.24 132.992 198.058667 213.418667 331.008 213.418667z" p-id="904" fill="#515151"></path>
</svg>